<?xml version="1.0" standalone="no"?>
<!DOCTYPE svg PUBLIC "-//W3C//DTD SVG 20010904//EN"
 "http://www.w3.org/TR/2001/REC-SVG-20010904/DTD/svg10.dtd">
<svg version="1.0" xmlns="http://www.w3.org/2000/svg"
 width="512.000000pt" height="512.000000pt" viewBox="0 0 512.000000 512.000000"
 preserveAspectRatio="xMidYMid meet">

<g transform="translate(0.000000,512.000000) scale(0.100000,-0.100000)"
fill="#000000" stroke="none">
<path d="M4452 4223 c-73 -76 -180 -188 -238 -249 -119 -127 -126 -146 -72
-201 l32 -33 -42 -43 -42 -43 0 -107 c0 -79 -3 -107 -12 -107 -7 0 -75 26
-152 57 -130 53 -140 56 -165 42 -19 -11 -74 -104 -208 -354 -101 -186 -183
-346 -183 -356 0 -24 32 -60 55 -61 11 -1 148 35 305 80 157 44 418 117 580
162 162 45 305 88 318 96 28 18 30 74 5 96 -10 8 -107 50 -215 94 l-198 79 1
110 c0 103 1 112 25 138 l25 29 39 -36 c25 -22 50 -36 66 -36 29 0 43 13 333
311 194 200 197 206 133 267 -166 163 -211 202 -233 202 -18 0 -59 -36 -157
-137z m268 -136 c0 -13 -331 -347 -344 -347 -14 0 -106 91 -106 105 0 5 78 87
172 182 l173 173 52 -52 c29 -29 53 -56 53 -61z m-610 -807 c118 -49 228 -94
244 -100 16 -6 27 -13 24 -15 -11 -12 -788 -228 -795 -222 -4 5 146 295 214
414 l25 43 36 -16 c20 -8 134 -55 252 -104z"/>
<path d="M335 3246 c-17 -7 -45 -30 -63 -50 l-33 -37 5 -272 c2 -150 4 -280 4
-289 0 -14 -1 -304 -1 -598 0 -11 0 -144 0 -295 0 -151 1 -283 1 -292 0 -10
-2 -139 -4 -288 -6 -392 -31 -369 407 -373 234 -2 315 0 345 10 31 11 46 11
74 1 52 -18 1330 -17 1381 1 20 7 44 9 55 5 10 -4 332 -8 714 -8 680 -1 696 0
728 19 59 36 63 60 58 353 -2 144 -4 272 -4 285 0 12 0 144 0 292 0 149 0 280
0 293 0 12 2 140 4 285 4 231 3 267 -12 298 -33 69 -32 68 -389 74 l-320 5 -5
250 c-4 217 -7 255 -23 278 -39 60 -10 57 -800 59 -397 1 -1030 3 -1407 5
-552 2 -691 0 -715 -11z m1350 -351 l0 -230 -655 0 -655 0 -3 220 c-1 121 0
225 3 232 3 11 134 13 657 11 l653 -3 0 -230z m1465 0 l0 -235 -662 2 -663 3
-3 220 c-1 121 0 225 2 232 4 10 140 13 666 13 l660 0 0 -235z m-1042 -362
l312 -4 0 -229 0 -230 -660 0 -660 0 2 228 3 227 312 5 c171 3 315 9 320 13 4
5 19 5 33 1 14 -4 166 -9 338 -11z m1440 -3 l332 0 0 -230 0 -230 -660 0 -660
0 0 230 0 230 308 3 c169 1 316 1 327 0 11 -2 170 -3 353 -3z m-2588 -230 l0
-230 -295 0 -295 0 0 223 c0 123 3 227 7 230 3 4 136 7 295 7 l288 0 0 -230z
m410 -360 l315 -5 0 -230 0 -230 -655 0 -655 0 -3 226 -2 227 22 6 c13 3 154
6 313 6 171 0 296 4 305 10 8 5 22 6 30 2 8 -4 157 -9 330 -12z m1460 0 l315
-5 0 -230 0 -230 -660 0 -660 0 -3 220 c-2 198 -1 221 15 232 12 10 93 13 317
13 178 0 307 4 316 10 8 5 22 6 30 2 8 -4 157 -9 330 -12z m1048 -231 l2 -227
-22 -6 c-36 -9 -556 -7 -562 3 -3 4 -6 106 -7 226 -1 175 1 219 12 226 8 5
140 8 294 6 l280 -2 3 -226z m-1778 -359 c173 -3 316 -7 318 -8 1 -1 1 -104 0
-229 l-3 -228 -655 0 -655 0 -3 226 -2 226 31 7 c17 3 158 6 313 6 165 0 287
4 296 10 8 5 22 6 30 2 8 -4 157 -9 330 -12z m1460 -1 c173 -3 316 -6 318 -7
1 -1 1 -104 0 -229 l-3 -228 -655 0 -655 0 -3 226 -2 227 22 6 c13 3 154 6
313 6 171 0 296 4 305 10 8 5 22 6 30 2 8 -4 157 -9 330 -13z m-2612 -7 c9 -7
12 -60 10 -233 l-3 -224 -290 0 -290 0 -3 227 -2 227 22 4 c42 8 543 7 556 -1z"/>
</g>
</svg>
